#!OML:ASF I:\golf\golf\golf 2\Subject 1\2002-09-07\Subject1.ASF
:FULLY-SPECIFIED
:DEGREES
371
root -4.94763 18.131 -1.05157 -173.469 9.97969 -176.205
lowerback -8.32741 7.28559 14.2489
upperback -9.32366 13.0568 9.5747
thorax -5.21646 7.41447 2.89535
lowerneck -3.04264 -22.4023 -1.93534
upperneck 16.0635 -35.7823 4.56813
head 6.68221 -17.9468 -1.05284
rclavicle -4.77083e-014 -7.63333e-014
rhumerus 77.7914 40.6482 -59.7195
rradius 54.4926
rwrist 4.52706
rhand -15.4046 15.9917
rfingers 7.12502
rthumb 10.7745 -13.712
lclavicle -4.77083e-014 -7.63333e-014
lhumerus 34.2833 -2.24718 79.0687
lradius 71.2819
lwrist 37.6145
lhand -26.8173 21.504
lfingers 7.12502
lthumb -180.244 -488.516
rfemur 10.4686 -2.78138 16.0377
rtibia 29.2317
rfoot 27.3927 -18.5834
rtoes 15.1716
lfemur -16.748 -13.4375 -17.7572
ltibia 21.3453
lfoot 19.7389 -41.7443
ltoes 43.8539
372
root -4.93675 18.1349 -1.10175 -173.178 9.06107 -175.994
lowerback -8.31353 7.39305 14.4058
upperback -9.64011 13.3126 9.29741
thorax -5.48605 7.52503 2.50849
lowerneck -3.49213 -22.6235 -1.86117
upperneck 15.3857 -35.7618 4.85448
head 6.56571 -17.8726 -0.991417
rclavicle 5.08889e-014 -1.90833e-014
rhumerus 80.1406 39.8016 -58.3937
rradius 55.6395
rwrist 4.70423
rhand -16.3437 16.7567
rfingers 7.12502
rthumb 9.86853 -12.992
lclavicle 5.08889e-014 -1.90833e-014
lhumerus 36.0545 -1.2077 78.7512
lradius 72.4474
lwrist 36.4262
lhand -27.2797 20.7665
lfingers 7.12502
lthumb -180.69 -489.255
rfemur 10.7839 -2.88016 16.603
rtibia 28.5682
rfoot 27.9596 -18.1608
rtoes 13.8461
lfemur -17.0765 -13.8354 -17.4461
ltibia 21.5107
lfoot 20.526 -41.963
ltoes 44.4168
373
root -4.92486 18.1361 -1.15135 -172.934 8.15054 -175.956
lowerback -8.39587 7.41529 14.3376
upperback -9.92073 13.4164 9.03663
thorax -5.70275 7.57206 2.25966
lowerneck -3.75128 -22.6946 -1.90406
upperneck 14.6969 -35.5922 5.27442
head 6.45583 -17.7408 -0.856997
rclavicle 3.65764e-014 2.38542e-013
rhumerus 82.425 39.1635 -57.2995
rradius 56.7734
rwrist 5.01805
rhand -17.4054 17.2762
rfingers 7.12502
rthumb 8.8441 -12.5185
lclavicle 3.65764e-014 2.38542e-013
lhumerus 37.7385 -0.150862 78.1812
lradius 73.4623
lwrist 35.0901
lhand -28.0751 19.3781
lfingers 7.12502
lthumb -181.458 -490.647
rfemur 11.1255 -3.01729 16.9863
rtibia 27.887
rfoot 28.6546 -17.5044
rtoes 11.8231
lfemur -17.4218 -14.2504 -17.3257
ltibia 21.7511
lfoot 21.2817 -42.0956
ltoes 45.0081
374
root -4.91342 18.1359 -1.20008 -172.709 7.32294 -176.023
lowerback -8.55954 7.27914 14.0509
upperback -10.2863 13.3482 8.84924
thorax -6.03754 7.55664 2.18273
lowerneck -3.4564 -22.5476 -1.75532
upperneck 13.9533 -35.1401 5.53291
head 6.17418 -17.5331 -0.657322
rclavicle -2.06736e-014 -2.22639e-014
rhumerus 84.4892 38.9497 -56.6305
rradius 57.9242
rwrist 5.47795
rhand -18.4427 17.508
rfingers 7.12502
rthumb 7.84311 -12.3265
lclavicle -2.06736e-014 -2.22639e-014
lhumerus 39.0386 1.23484 77.4458
lradius 74.7895
lwrist 34.3752
lhand -28.2522 19.0981
lfingers 7.12502
lthumb -181.629 -490.928
rfemur 11.4657 -3.06602 17.261
rtibia 27.1883
rfoot 29.0397 -17.6582
rtoes 12.0983
lfemur -17.7781 -14.6649 -17.3199
ltibia 22.038
lfoot 21.97 -42.0716
ltoes 45.7887
375
root -4.90353 18.1362 -1.24857 -172.453 6.55599 -175.875
lowerback -8.48534 7.52363 14.0474
upperback -10.4798 13.815 8.69338
thorax -6.25261 7.7981 2.01567
lowerneck -4.45159 -22.8959 -1.96143
upperneck 13.6534 -35.1875 5.39183
head 6.23011 -17.4733 -0.785974
rclavicle -4.6118e-014 -1.08139e-013
rhumerus 86.506 37.9595 -55.2067
rradius 59.078
rwrist 6.09932
rhand -19.4253 17.7757
rfingers 7.12502
rthumb 6.89459 -12.092
lclavicle -4.6118e-014 -1.08139e-013
lhumerus 41.0726 2.35753 77.8904
lradius 76.199
lwrist 35.0824
lhand -27.4455 19.4526
lfingers 7.12502
lthumb -180.85 -490.569
rfemur 11.7857 -3.09114 17.7374
rtibia 26.4981
rfoot 28.9742 -18.4973
rtoes 14.4298
lfemur -18.1212 -15.0175 -17.086
ltibia 22.3108
lfoot 22.2731 -42.241
ltoes 46.2222
376
root -4.89355 18.1339 -1.29445 -172.224 5.80048 -175.655
lowerback -8.47194 7.68618 14.2121
upperback -10.6796 14.1175 8.46892
thorax -6.39469 7.93653 1.69786
lowerneck -4.88573 -23.0631 -1.88733
upperneck 12.8578 -35.0566 5.58734
head 6.05361 -17.362 -0.720043
rclavicle 1.27222e-014 -6.36111e-015
rhumerus 88.49 37.2407 -54.2953
rradius 60.1014
rwrist 6.87894
rhand -20.4499 17.9345
rfingers 7.12502
rthumb 5.90546 -11.9632
lclavicle 1.27222e-014 -6.36111e-015
lhumerus 42.9814 3.19133 77.505
lradius 77.048
lwrist 34.3057
lhand -27.8565 18.5478
lfingers 7.12502
lthumb -181.247 -491.476
rfemur 12.1471 -3.13223 18.2988
rtibia 25.8046
rfoot 29.0269 -18.8466
rtoes 15.34
lfemur -18.4344 -15.3339 -16.7838
ltibia 22.5979
lfoot 22.4881 -42.4812
ltoes 46.4924
377
root -4.88601 18.1333 -1.33861 -171.988 5.10383 -175.643
lowerback -8.48986 7.87715 14.2
upperback -10.9143 14.4197 8.11291
thorax -6.54236 8.066 1.33562
lowerneck -5.01619 -23.0967 -2.00267
upperneck 11.9804 -34.9001 6.24139
head 5.9196 -17.2441 -0.502339
rclavicle -1.27222e-014 -2.38542e-014
rhumerus 90.5295 36.4952 -53.628
rradius 60.8482
rwrist 7.6574
rhand -21.3893 17.9776
rfingers 7.12502
rthumb 4.99842 -11.9434
lclavicle -1.27222e-014 -2.38542e-014
lhumerus 44.8554 3.74214 76.7739
lradius 77.6508
lwrist 32.6313
lhand -29.0097 17.3339
lfingers 7.12502
lthumb -182.361 -492.699
rfemur 12.4664 -3.16928 18.6377
rtibia 25.0854
rfoot 29.4696 -18.5568
rtoes 14.3166
lfemur -18.793 -15.7098 -16.7009
ltibia 22.9251
lfoot 22.7787 -42.4941
ltoes 46.8797
378
root -4.87934 18.136 -1.38341 -171.743 4.46557 -175.568
lowerback -8.48411 8.05985 14.1873
upperback -11.1699 14.7508 7.81181
thorax -6.7437 8.21854 1.02321
lowerneck -5.15902 -23.1229 -2.2288
upperneck 11.3741 -34.7847 6.78202
head 5.87318 -17.1524 -0.333382
rclavicle 4.13472e-014 -1.52667e-013
rhumerus 92.0961 35.4851 -52.9028
rradius 62.0478
rwrist 7.97794
rhand -22.1983 18.0688
rfingers 7.12502
rthumb 4.21725 -11.8692
lclavicle 4.13472e-014 -1.52667e-013
lhumerus 46.6248 4.42664 76.2311
lradius 78.3819
lwrist 31.6432
lhand -29.5281 16.7805
lfingers 7.12502
lthumb -182.862 -493.259
rfemur 12.7667 -3.23691 19.0165
rtibia 24.3513
rfoot 29.8261 -18.4306
rtoes 13.176
lfemur -19.1552 -16.0483 -16.5372
ltibia 23.2603
lfoot 22.9309 -42.5905
ltoes 47.1004
379
root -4.87111 18.1367 -1.42792 -171.536 3.81987 -175.239
lowerback -8.50692 8.21634 14.4469
upperback -11.3839 15.0296 7.55585
thorax -6.84893 8.336 0.636023
lowerneck -5.34043 -23.1582 -2.18883
upperneck 10.7734 -34.6603 7.11459
head 5.75489 -17.0667 -0.224495
rclavicle -8.34896e-014 -9.22361e-014
rhumerus 93.624 34.9783 -52.657
rradius 62.9541
rwrist 8.71207
rhand -22.9982 18.2971
rfingers 7.12502
rthumb 3.44483 -11.6548
lclavicle -8.34896e-014 -9.22361e-014
lhumerus 48.3672 5.25023 75.5692
lradius 79.2064
lwrist 31.1282
lhand -29.3958 16.7042
lfingers 7.12502
lthumb -182.734 -493.334
rfemur 13.129 -3.33246 19.659
rtibia 23.5941
rfoot 29.9041 -18.888
rtoes 13.1806
lfemur -19.4541 -16.3151 -16.1033
ltibia 23.5903
lfoot 22.8881 -42.9527
ltoes 47.139
380
root -4.86509 18.1347 -1.47168 -171.32 3.14201 -174.951
lowerback -8.63588 8.3484 14.6997
upperback -11.5599 15.2209 7.27325
thorax -6.84407 8.40994 0.249598
lowerneck -5.59356 -23.1293 -2.10961
upperneck 10.1829 -34.4762 7.51317
head 5.65429 -16.9473 -0.108488
rclavicle 8.98507e-014 1.59028e-014
rhumerus 95.1172 34.0309 -52.3456
rradius 63.9324
rwrist 8.90426
rhand -23.7064 18.653
rfingers 7.12502
rthumb 2.76091 -11.3088
lclavicle 8.98507e-014 1.59028e-014
lhumerus 50.1293 6.07962 74.9804
lradius 80.0342
lwrist 30.3642
lhand -29.2135 16.6275
lfingers 7.12502
lthumb -182.558 -493.408
rfemur 13.4906 -3.49695 20.2285
rtibia 22.7819
rfoot 29.9975 -19.3823
rtoes 13.6571
lfemur -19.7831 -16.6076 -15.7228
ltibia 23.9467
lfoot 22.9773 -43.224
ltoes 47.3808
381
root -4.85922 18.1338 -1.5143 -171.097 2.52202 -174.866
lowerback -8.74213 8.36786 14.6897
upperback -11.8344 15.304 6.97976
thorax -7.01707 8.43981 -0.0537838
lowerneck -5.4856 -22.9663 -2.04548
upperneck 9.60225 -34.1685 7.95247
head 5.50699 -16.7968 0.0751832
rclavicle -8.42847e-014 -9.54166e-015
rhumerus 96.2274 33.4548 -52.3928
rradius 64.9556
rwrist 9.0139
rhand -24.4275 19.404
rfingers 7.12502
rthumb 2.0645 -10.5657
lclavicle -8.42847e-014 -9.54166e-015
lhumerus 51.61 7.05769 74.4052
lradius 80.8877
lwrist 29.9413
lhand -28.8087 16.5484
lfingers 7.12502
lthumb -182.167 -493.483
rfemur 13.8317 -3.65327 20.5715
rtibia 21.9469
rfoot 30.2756 -19.5032
rtoes 13.1884
lfemur -20.1569 -16.9091 -15.5532
ltibia 24.3052
lfoot 23.2247 -43.2928
ltoes 47.7279
382
root -4.84731 18.1321 -1.55695 -170.912 2.01795 -174.754
lowerback -8.82968 8.21535 14.5729
upperback -12.2059 15.2333 6.78951
thorax -7.38392 8.40875 -0.239817
lowerneck -4.74855 -22.6636 -1.68716
upperneck 8.8512 -33.6531 8.16842
head 5.11696 -16.6052 0.312105
rclavicle 1.12115e-013 9.70069e-014
rhumerus 97.3865 33.5586 -52.8041
rradius 65.7823
rwrist 9.30042
rhand -25.1734 20.2361
rfingers 7.12502
rthumb 1.3441 -9.73937
lclavicle 1.12115e-013 9.70069e-014
lhumerus 52.6557 8.53164 73.3301
lradius 81.8356
lwrist 30.7389
lhand -27.9217 16.8677
lfingers 7.12502
lthumb -181.31 -493.157
rfemur 14.2166 -3.61123 21.0147
rtibia 21.0972
rfoot 30.5333 -19.8365
rtoes 12.8378
lfemur -20.4798 -17.1747 -15.3281
ltibia 24.6412
lfoot 23.1836 -43.4208
ltoes 47.8459
383
root -4.83192 18.1282 -1.60072 -170.692 1.49486 -174.51
lowerback -8.77448 8.58335 14.6831
upperback -12.4391 15.8699 6.5306
thorax -7.55234 8.72118 -0.548185
lowerneck -4.99588 -22.95 -2.58414
upperneck 8.62326 -33.8767 8.5128
head 5.28608 -16.6744 0.396743
rclavicle 2.38542e-015 -4.77083e-015
rhumerus 98.2592 32.571 -52.2338
rradius 66.5713
rwrist 9.72459
rhand -26.0606 20.9138
rfingers 7.12502
rthumb 0.487206 -9.06541
lclavicle 2.38542e-015 -4.77083e-015
lhumerus 54.2764 8.88467 73.2028
lradius 82.4355
lwrist 30.0921
lhand -28.1463 16.8137
lfingers 7.12502
lthumb -181.527 -493.212
rfemur 14.6025 -3.53542 21.645
rtibia 20.1895
rfoot 30.5955 -20.7235
rtoes 14.0328
lfemur -20.8247 -17.3914 -14.9274
ltibia 24.9833
lfoot 23.1405 -43.6152
ltoes 48.0678
384
root -4.82194 18.1254 -1.64398 -170.465 0.936174 -174.236
lowerback -8.86425 8.81053 14.8665
upperback -12.6075 16.2307 6.28301
thorax -7.56651 8.89236 -0.856384
lowerneck -5.80985 -22.9665 -3.35486
upperneck 9.33052 -33.8436 8.53445
head 5.75285 -16.5841 0.28181
rclavicle 3.73715e-014 2.70347e-014
rhumerus 99.0436 31.531 -51.9021
rradius 67.6362
rwrist 9.88029
rhand -27.1148 21.4949
rfingers 7.12502
rthumb -0.530939 -8.48421
lclavicle 3.73715e-014 2.70347e-014
lhumerus 55.9175 9.58823 72.9246
lradius 83.092
lwrist 29.732
lhand -28.207 17.0298
lfingers 7.12502
lthumb -181.586 -492.996
rfemur 14.986 -3.60478 22.2355
rtibia 19.2815
rfoot 30.7478 -21.3125
rtoes 14.7926
lfemur -21.1818 -17.6108 -14.5054
ltibia 25.325
lfoot 23.1937 -43.8118
ltoes 48.3936
385
root -4.81503 18.1215 -1.68706 -170.369 0.440777 -173.951
lowerback -8.94165 8.94669 15.03
upperback -12.6906 16.431 6.1193
thorax -7.52474 8.985 -1.07222
lowerneck -6.41049 -23.0656 -3.09965
upperneck 9.4383 -33.7926 8.06885
head 5.7526 -16.5345 0.0904185
rclavicle -1.19271e-014 1.11319e-014
rhumerus 100.138 30.8387 -51.7153
rradius 68.4801
rwrist 10.1278
rhand -27.8481 21.9722
rfingers 7.12502
rthumb -1.23921 -8.00396
lclavicle -1.19271e-014 1.11319e-014
lhumerus 57.4229 10.5015 72.4097
lradius 83.61
lwrist 29.0735
lhand -28.76 17.1313
lfingers 7.12502
lthumb -182.12 -492.899
rfemur 15.476 -3.6991 22.7686
rtibia 18.4281
rfoot 31.0673 -21.3927
rtoes 14.1998
lfemur -21.3738 -17.8791 -14.1203
ltibia 25.6519
lfoot 22.9216 -44.0609
ltoes 48.5372
